<svg width="16" height="16" viewBox="0 0 16 16" fill="none" xmlns="http://www.w3.org/2000/svg">
<path fill-rule="evenodd" clip-rule="evenodd" d="M9.6 0C13.1346 0 16 2.86538 16 6.4H9.6V0ZM6.4 16C2.86538 16 0 13.1346 0 9.6H6.4V16ZM6.4 6.00001V7.60001V8.00001H6H4.4H2H0C0 7.30156 0.111882 6.62924 0.318703 6.00001C0.951716 4.0741 2.47409 2.55172 4.4 1.91871C5.02924 1.71189 5.70155 1.60001 6.4 1.60001V3.60001V6.00001ZM8 9.60001H8.4H10H12.4H14.4C14.4 10.2985 14.2881 10.9708 14.0813 11.6C13.4483 13.5259 11.9259 15.0483 10 15.6813C9.37076 15.8881 8.69845 16 8 16V14V11.6V10V9.60001ZM10 13.5202V11.6H11.9202C11.4987 12.4246 10.8246 13.0987 10 13.5202ZM4.4 4.07977V6.00001H2.47977C2.90131 5.17539 3.57538 4.50131 4.4 4.07977Z" fill="#2B2B2B"/>
</svg>
