<svg width="20" height="14" viewBox="0 0 20 14" fill="none" xmlns="http://www.w3.org/2000/svg">
<path fill-rule="evenodd" clip-rule="evenodd" d="M17.2809 11.1011C16.6904 10.363 15.5 10.7805 15.5 11.7258V12C15.5 12.5523 15.0523 13 14.5 13H1.5C0.947715 13 0.5 12.5523 0.5 12V2.00004C0.5 1.44775 0.947715 1.00004 1.5 1.00004H14.5C15.0523 1.00004 15.5 1.44775 15.5 2.00004V2.27425C15.5 3.21953 16.6904 3.63709 17.2809 2.89895L19.1096 0.613079C19.4048 0.244011 20 0.452787 20 0.925426V13.0746C20 13.5473 19.4048 13.7561 19.1096 13.387L17.2809 11.1011Z" fill="#2B2B2B"/>
</svg>
