<svg width="19" height="23" viewBox="0 0 19 23" fill="none" xmlns="http://www.w3.org/2000/svg">
<path fill-rule="evenodd" clip-rule="evenodd" d="M10.2978 1.11789C10.3629 0.708828 10.0841 0.32443 9.67506 0.259314C9.266 0.194198 8.8816 0.473022 8.81648 0.882085L8.25934 4.38209C8.19422 4.79115 8.47305 5.17555 8.88211 5.24066C9.29117 5.30578 9.67557 5.02696 9.74069 4.61789L10.2978 1.11789ZM18.3725 2.71703C18.6305 2.39294 18.5769 1.92111 18.2528 1.66316C17.9287 1.40521 17.4569 1.45882 17.1989 1.78291L14.4132 5.28291C14.1552 5.607 14.2089 6.07884 14.533 6.33679C14.857 6.59474 15.3289 6.54112 15.5868 6.21703L18.3725 2.71703ZM1.23927 2.93154C0.925322 2.66133 0.451774 2.69678 0.181567 3.01073C-0.0886406 3.32467 -0.0531846 3.79822 0.26076 4.06843L2.87496 6.31843C3.1889 6.58863 3.66245 6.55318 3.93266 6.23923C4.20286 5.92529 4.16741 5.45174 3.85346 5.18154L1.23927 2.93154ZM6.69605 8.07142C7.10357 7.42856 7.8145 6.99999 8.62358 6.99999C9.43267 6.99999 10.1436 7.42856 10.5511 8.07142C10.8843 7.88094 11.262 7.76189 11.6696 7.76189C12.4786 7.76189 13.1896 8.19046 13.5971 8.83332C13.9302 8.64285 14.308 8.5238 14.7155 8.5238C15.9678 8.5238 17 9.55654 17 10.8095V17.6667C17 20.6042 14.6055 23 11.6696 23H7.64792C6.11601 23 4.66144 22.3423 3.65008 21.1905L1.84153 19.1428C1.18117 18.3899 0.898588 17.4018 1.03244 16.4524C1.03729 16.4217 1.04739 16.3919 1.05752 16.362C1.06605 16.3368 1.0746 16.3116 1.08004 16.2857C1.17522 15.7887 1.37452 15.3006 1.69875 14.8809L1.93672 14.5714C2.26987 14.0803 2.64169 13.5982 3.03136 13.1428C3.05961 13.1101 3.08711 13.0789 3.11462 13.0476C3.14214 13.0164 3.16967 12.9851 3.19794 12.9524L3.29313 12.8333V10.0476C3.29313 8.79463 4.32531 7.76189 5.57761 7.76189C5.98513 7.76189 6.3629 7.88094 6.69605 8.07142ZM9.38508 9.2857C9.38508 8.85415 9.0549 8.5238 8.62358 8.5238C8.19227 8.5238 7.86209 8.85415 7.86209 9.2857V10.8095H8.62358C8.8913 10.8095 9.14414 10.8661 9.38508 10.9524V9.2857ZM6.3391 10.0476C6.3391 9.61606 6.00892 9.2857 5.57761 9.2857C5.14629 9.2857 4.81611 9.61606 4.81611 10.0476V11.2619C4.88156 11.1994 5.05408 11.0238 5.05408 11.0238L5.26825 10.8095H6.3391V10.0476ZM12.4311 10.0476C12.4311 9.61606 12.1009 9.2857 11.6696 9.2857C11.2382 9.2857 10.9081 9.61606 10.9081 10.0476V12.3333C10.9081 12.7649 11.2382 13.0952 11.6696 13.0952C12.1009 13.0952 12.4311 12.7649 12.4311 12.3333V10.0476ZM15.477 10.8095C15.477 10.378 15.1468 10.0476 14.7155 10.0476C14.2842 10.0476 13.954 10.378 13.954 10.8095V12.3333C13.954 12.7649 14.2842 13.0952 14.7155 13.0952C15.1468 13.0952 15.477 12.7649 15.477 12.3333V10.8095ZM8.62358 12.3333H5.91076L5.90616 12.3377C5.72884 12.5057 5.0318 13.1664 4.1974 14.1428L3.07896 15.619C3.06334 15.6425 3.04488 15.667 3.02631 15.6918C3.00244 15.7235 2.97838 15.7556 2.95997 15.7857C2.70714 16.2024 2.59113 16.5238 2.55543 16.6905C2.55394 16.7024 2.55469 16.7143 2.55543 16.7262C2.55617 16.7381 2.55692 16.75 2.55543 16.7619C2.5539 16.7696 2.54762 16.7867 2.54189 16.8024C2.53652 16.8171 2.53163 16.8304 2.53163 16.8333C2.50486 17.2917 2.65657 17.747 2.98377 18.119L4.79232 20.1905C5.51514 21.0149 6.55327 21.4762 7.64792 21.4762H11.6696C13.7815 21.4762 15.477 19.7798 15.477 17.6667V14.4762C15.2361 14.5625 14.9832 14.619 14.7155 14.619C14.1325 14.619 13.5971 14.3899 13.1925 14.0238C12.788 14.3899 12.2526 14.619 11.6696 14.619C11.262 14.619 10.8843 14.5 10.5511 14.3095C10.2239 14.8274 9.69146 15.2053 9.07572 15.3333C10.0365 16.2619 10.9081 17.7678 10.9081 19.9524H9.38508C9.38508 17.9315 8.57896 16.8512 7.7669 16.1905C7.42483 15.9137 7.11249 15.7232 6.83883 15.5952L5.43483 17.3571L4.24499 16.4048L6.02975 14.1428L6.24392 13.8571H8.62358C9.05192 13.8571 9.38508 13.5238 9.38508 13.0952C9.38508 12.6667 9.05192 12.3333 8.62358 12.3333Z" fill="#AD5CED"/>
</svg>
