<svg width="24" height="24" viewBox="0 0 24 24" fill="none" xmlns="http://www.w3.org/2000/svg">
<g clip-path="url(#clip0_693_2904)">
<path fill-rule="evenodd" clip-rule="evenodd" d="M1 0C0.447715 0 0 0.447715 0 1V6.5C0 7.05228 0.447715 7.5 1 7.5H6.5C7.05228 7.5 7.5 7.05228 7.5 6.5V1C7.5 0.447715 7.05228 0 6.5 0H1ZM13 0C12.4477 0 12 0.447715 12 1V11C12 11.5523 12.4477 12 13 12H23C23.5523 12 24 11.5523 24 11V1C24 0.447715 23.5523 0 23 0H13ZM16.5 17.5C16.5 16.9477 16.9477 16.5 17.5 16.5H23C23.5523 16.5 24 16.9477 24 17.5V23C24 23.5523 23.5523 24 23 24H17.5C16.9477 24 16.5 23.5523 16.5 23V17.5ZM1 12C0.447715 12 0 12.4477 0 13V23C0 23.5523 0.447715 24 1 24H11C11.5523 24 12 23.5523 12 23V13C12 12.4477 11.5523 12 11 12H1Z" fill="url(#paint0_linear_693_2904)"/>
</g>
<defs>
<linearGradient id="paint0_linear_693_2904" x1="-1.5" y1="2.1" x2="28.5" y2="24" gradientUnits="userSpaceOnUse">
<stop offset="0.151042" stop-color="#894AE2"/>
<stop offset="1" stop-color="#ED6DC1"/>
</linearGradient>
<clipPath id="clip0_693_2904">
<rect width="24" height="24" fill="white"/>
</clipPath>
</defs>
</svg>
