<svg width="18" height="16" viewBox="0 0 18 16" fill="none" xmlns="http://www.w3.org/2000/svg">
<path fill-rule="evenodd" clip-rule="evenodd" d="M8.45119 3.05954C8.737 2.80051 9.17268 2.80051 9.45849 3.05954L11.315 4.74203C11.6219 5.02019 11.6452 5.49449 11.367 5.80141C11.0889 6.10833 10.6146 6.13165 10.3077 5.85349L9.70484 5.30716V9.08336C9.70484 9.49758 9.36905 9.83336 8.95484 9.83336C8.54062 9.83336 8.20484 9.49758 8.20484 9.08336V5.30716L7.60202 5.85349C7.29509 6.13165 6.82079 6.10833 6.54264 5.80141C6.26448 5.49449 6.28779 5.02019 6.59472 4.74203L8.45119 3.05954ZM1 0.5C0.447715 0.5 0 0.947716 0 1.5V10.8281C0 11.3804 0.447716 11.8281 1 11.8281H7.99998V13.75H4.5C3.94772 13.75 3.5 14.1977 3.5 14.75C3.5 15.3023 3.94772 15.75 4.5 15.75H8.99998H13.5C14.0523 15.75 14.5 15.3023 14.5 14.75C14.5 14.1977 14.0523 13.75 13.5 13.75H9.99998V11.8281H17C17.5523 11.8281 18 11.3804 18 10.8281V1.5C18 0.947715 17.5523 0.5 17 0.5H1Z" fill="#2B2B2B"/>
</svg>
