<svg width="24" height="24" fill="none" xmlns="http://www.w3.org/2000/svg">
    <path d="M22.65 8.42a2.96 2.96 0 0 1-2.03-.68c-1.35 2.03-2.7 1.35-2.7 2.7 0 .69 1.35 1.36 1.35 1.36 1.35 0 4.73-2.03 4.73-2.7 0-.68-.68-.68-1.35-.68Z" fill="#F2994A"/>
    <path fill-rule="evenodd" clip-rule="evenodd" d="M17.92 10.45c0 .68 1.35 1.35 1.35 1.35s-.67 0-.67 1.36c0 .52.3.9.67 1.35a5.15 5.15 0 0 1 1.35 3.73c0 3.38-.67 5.92-7.26 5.75-6.59-.17-9.12-1.18-10.13-5.08-1.02-3.9 1.69-6.43 1.69-6.43s1.01 2.7 4.39 2.7c2.02 0 2.53-1.35 2.53-2.02 0-.89-.39-1.26-.82-1.68-.56-.54-1.2-1.15-1.2-3.06 0-2.03 1.34-5.42 5.4-5.42 4.73 0 5.4 4.74 5.4 4.74a4.26 4.26 0 0 1-1.86 1.6c-.5.26-.84.43-.84 1.1Zm1.24-3.39c0 .8-.51 1.19-1.16 1.19-.65 0-.96-.51-.96-1.19 0-.67.21-1.06.96-1.06s1.16.27 1.16 1.06Z" fill="url(#a)"/>
    <path fill-rule="evenodd" clip-rule="evenodd" d="M4.5 0a4.5 4.5 0 1 0 0 9 4.5 4.5 0 0 0 0-9Zm.64 1.93a.64.64 0 0 0-1.28 0V4.7c0 .25.14.48.37.59l1.6.75a.64.64 0 0 0 .55-1.17L5.14 4.3V1.93Z" fill="#535353"/>
    <defs>
        <linearGradient id="a" x1="1.69" y1="4.84" x2="27.94" y2="24" gradientUnits="userSpaceOnUse">
            <stop stop-color="#86F8FF"/>
            <stop offset="1" stop-color="#4349E1"/>
        </linearGradient>
    </defs>
</svg>