<svg width="24" height="25" fill="none" xmlns="http://www.w3.org/2000/svg">
    <path fill-rule="evenodd" clip-rule="evenodd" d="M10.66 8.09c0 1.24.63 2.33 1.59 2.98-1.09.3-1.8.84-2.26 1.44-.29.4-.45.78-.54 1.1H7.98a.75.75 0 0 0-.73.91l1.2 5.4H6c-.83 0-1.5.68-1.5 1.5v1.19c0 .83.67 1.5 1.5 1.5h16.5c.83 0 1.5-.67 1.5-1.5v-1.18c0-.83-.67-1.5-1.5-1.5h-2.45l1.2-5.41a.75.75 0 0 0-.73-.91h-1.47c-.09-.32-.25-.7-.54-1.1a4.07 4.07 0 0 0-2.26-1.44 3.59 3.59 0 1 0-5.59-2.98ZM14.25 6a2.09 2.09 0 1 0 0 4.18 2.09 2.09 0 0 0 0-4.18Zm3.18 7.6h-6.36l.12-.19c.36-.46 1.15-1.09 3.06-1.09 1.9 0 2.7.63 3.06 1.1.04.06.09.12.12.19Zm-7.45 6.28L8.92 15.1h10.66l-1.06 4.77H9.98Zm4.22-3.38a.7.7 0 1 0 0 1.4.7.7 0 0 0 0-1.4Z" fill="url(#a)"/>
    <path fill-rule="evenodd" clip-rule="evenodd" d="M4.5 0a4.5 4.5 0 1 0 0 9 4.5 4.5 0 0 0 0-9Zm.64 1.93a.64.64 0 0 0-1.28 0V4.7c0 .25.14.48.37.59l1.6.75a.64.64 0 0 0 .55-1.17L5.14 4.3V1.93Z" fill="#535353"/>
    <defs>
        <linearGradient id="a" x1="3.28" y1="6.22" x2="27.75" y2="23.98" gradientUnits="userSpaceOnUse">
            <stop offset=".15" stop-color="#894AE2"/>
            <stop offset="1" stop-color="#ED6DC1"/>
        </linearGradient>
    </defs>
</svg>